<svg xmlns="http://www.w3.org/2000/svg" version="1.1" xmlns:xlink="http://www.w3.org/1999/xlink" xmlns:svgjs="http://svgjs.com/svgjs" width="1440" height="560" preserveAspectRatio="none" viewBox="0 0 1440 560"><g mask="url(&quot;#SvgjsMask1672&quot;)" fill="none"><rect width="1440" height="560" x="0" y="0" fill="url(#SvgjsLinearGradient1673)"></rect><path d="M1440 0L798.47 0L1440 248.57z" fill="rgba(255, 255, 255, .1)"></path><path d="M798.47 0L1440 248.57L1440 258.7L653.39 0z" fill="rgba(255, 255, 255, .075)"></path><path d="M653.39 0L1440 258.7L1440 340.56L318.22999999999996 0z" fill="rgba(255, 255, 255, .05)"></path><path d="M318.23 0L1440 340.56L1440 378.58L317 0z" fill="rgba(255, 255, 255, .025)"></path><path d="M0 560L276.44 560L0 516.44z" fill="rgba(0, 0, 0, .1)"></path><path d="M0 516.44L276.44 560L549.3 560L0 330.07000000000005z" fill="rgba(0, 0, 0, .075)"></path><path d="M0 330.07L549.3 560L987.53 560L0 273.93z" fill="rgba(0, 0, 0, .05)"></path><path d="M0 273.93L987.53 560L1009 560L0 211.04000000000002z" fill="rgba(0, 0, 0, .025)"></path></g><defs><mask id="SvgjsMask1672"><rect width="1440" height="560" fill="#ffffff"></rect></mask><linearGradient x1="15.28%" y1="-39.29%" x2="84.72%" y2="139.29%" gradientUnits="userSpaceOnUse" id="SvgjsLinearGradient1673"><stop stop-color="rgba(142, 183, 197, 1)" offset="0"></stop><stop stop-color="rgba(119, 188, 214, 1)" offset="0.5"></stop><stop stop-color="rgba(81, 164, 194, 1)" offset="1"></stop></linearGradient></defs></svg>